<svg xmlns="http://www.w3.org/2000/svg" xmlns:xlink="http://www.w3.org/1999/xlink" width="361" zoomAndPan="magnify" viewBox="0 0 270.75 73.499998" height="98" preserveAspectRatio="xMidYMid meet" version="1.0"><defs><g/><clipPath id="4531daed2d"><path d="M 1.027344 0.710938 L 260.941406 0.710938 L 260.941406 72.222656 L 1.027344 72.222656 Z M 1.027344 0.710938 " clip-rule="nonzero"/></clipPath><clipPath id="54aef824b5"><path d="M 8.050781 7.4375 L 130.988281 7.4375 L 130.988281 65.566406 L 8.050781 65.566406 Z M 8.050781 7.4375 " clip-rule="nonzero"/></clipPath></defs><g clip-path="url(#4531daed2d)"><path stroke-linecap="butt" transform="matrix(0.744932, 0, 0, 0.744932, 1.028193, 0.710621)" fill="none" stroke-linejoin="miter" d="M -0.00114012 0.0004248 L 348.908467 0.0004248 L 348.908467 96.092411 L -0.00114012 96.092411 Z M -0.00114012 0.0004248 " stroke="#000000" stroke-width="6" stroke-opacity="1" stroke-miterlimit="4"/></g><g clip-path="url(#54aef824b5)"><path fill="#000000" d="M 8.050781 7.4375 L 130.988281 7.4375 L 130.988281 65.566406 L 8.050781 65.566406 Z M 8.050781 7.4375 " fill-opacity="1" fill-rule="nonzero"/></g><g fill="#ffffff" fill-opacity="1"><g transform="translate(11.310117, 45.558344)"><g><path d="M 9.347656 0.363281 C 13.613281 0.363281 16.375 -1.730469 16.375 -5.132812 C 16.375 -8.007812 14.449219 -9.734375 9.457031 -10.964844 C 5.664062 -11.882812 4.40625 -12.890625 4.40625 -14.507812 C 4.40625 -16.375 6.082031 -17.546875 8.871094 -17.546875 C 11.746094 -17.546875 13.53125 -16.097656 13.585938 -13.753906 L 16.011719 -13.753906 C 15.984375 -17.546875 13.25 -19.890625 8.871094 -19.890625 C 4.601562 -19.890625 1.898438 -17.796875 1.898438 -14.507812 C 1.898438 -11.492188 4.046875 -9.820312 8.84375 -8.675781 C 12.359375 -7.839844 13.835938 -6.863281 13.835938 -5.050781 C 13.835938 -3.125 12.109375 -1.980469 9.347656 -1.980469 C 6.304688 -1.980469 4.183594 -3.488281 4.128906 -5.996094 L 1.675781 -5.996094 C 1.703125 -2.175781 4.6875 0.363281 9.347656 0.363281 Z M 9.347656 0.363281 "/></g></g></g><g fill="#ffffff" fill-opacity="1"><g transform="translate(31.474265, 45.558344)"><g><path d="M 7.558594 0 L 10.015625 0 L 10.015625 -17.183594 L 16.597656 -17.183594 L 16.597656 -19.527344 L 0.949219 -19.527344 L 0.949219 -17.183594 L 7.558594 -17.183594 Z M 7.558594 0 "/></g></g></g><g fill="#ffffff" fill-opacity="1"><g transform="translate(51.164306, 45.558344)"><g><path d="M 2.84375 0 L 5.300781 0 L 5.300781 -7.003906 L 9.597656 -7.003906 L 14.367188 0 L 17.324219 0 L 12.414062 -7.253906 C 15.261719 -7.949219 17.019531 -10.097656 17.019531 -13.25 C 17.019531 -17.128906 14.339844 -19.527344 10.292969 -19.527344 L 2.84375 -19.527344 Z M 5.300781 -9.347656 L 5.300781 -17.183594 L 10.015625 -17.183594 C 12.859375 -17.183594 14.507812 -15.734375 14.507812 -13.25 C 14.507812 -10.769531 12.859375 -9.347656 10.015625 -9.347656 Z M 5.300781 -9.347656 "/></g></g></g><g fill="#ffffff" fill-opacity="1"><g transform="translate(72.276659, 45.558344)"><g><path d="M 2.84375 0 L 15.007812 0 L 15.007812 -2.289062 L 5.300781 -2.289062 L 5.300781 -8.816406 L 14.003906 -8.816406 L 14.003906 -11.074219 L 5.300781 -11.074219 L 5.300781 -17.242188 L 14.703125 -17.242188 L 14.703125 -19.527344 L 2.84375 -19.527344 Z M 2.84375 0 "/></g></g></g><g fill="#ffffff" fill-opacity="1"><g transform="translate(91.213719, 45.558344)"><g><path d="M 2.84375 0 L 15.007812 0 L 15.007812 -2.289062 L 5.300781 -2.289062 L 5.300781 -8.816406 L 14.003906 -8.816406 L 14.003906 -11.074219 L 5.300781 -11.074219 L 5.300781 -17.242188 L 14.703125 -17.242188 L 14.703125 -19.527344 L 2.84375 -19.527344 Z M 2.84375 0 "/></g></g></g><g fill="#ffffff" fill-opacity="1"><g transform="translate(110.150785, 45.558344)"><g><path d="M 7.558594 0 L 10.015625 0 L 10.015625 -17.183594 L 16.597656 -17.183594 L 16.597656 -19.527344 L 0.949219 -19.527344 L 0.949219 -17.183594 L 7.558594 -17.183594 Z M 7.558594 0 "/></g></g></g><g fill="#000000" fill-opacity="1"><g transform="translate(147.544483, 45.708577)"><g><path d="M 9.066406 0.417969 C 13.921875 0.417969 16.792969 -1.867188 16.792969 -5.71875 C 16.792969 -8.953125 14.703125 -10.851562 9.960938 -11.910156 C 7.449219 -12.46875 6.527344 -13.082031 6.527344 -14.089844 C 6.527344 -15.035156 7.363281 -15.621094 8.675781 -15.621094 C 10.238281 -15.621094 11.128906 -14.8125 11.128906 -13.335938 L 16.429688 -13.335938 C 16.429688 -17.351562 13.363281 -19.945312 8.5625 -19.945312 C 3.960938 -19.945312 1.117188 -17.660156 1.117188 -13.976562 C 1.117188 -10.683594 3.265625 -8.648438 7.671875 -7.8125 C 10.042969 -7.335938 11.1875 -6.613281 11.1875 -5.496094 C 11.1875 -4.519531 10.351562 -3.960938 8.984375 -3.960938 C 7.363281 -3.960938 6.417969 -4.824219 6.417969 -6.332031 L 0.976562 -6.332031 C 0.976562 -2.121094 3.988281 0.417969 9.066406 0.417969 Z M 9.066406 0.417969 "/></g></g></g><g fill="#000000" fill-opacity="1"><g transform="translate(165.369551, 45.708577)"><g><path d="M 6.722656 0 L 12.332031 0 L 12.332031 -14.3125 L 18.273438 -14.3125 L 18.273438 -19.527344 L 0.78125 -19.527344 L 0.78125 -14.3125 L 6.722656 -14.3125 Z M 6.722656 0 "/></g></g></g><g fill="#000000" fill-opacity="1"><g transform="translate(184.422007, 45.708577)"><g><path d="M 11.578125 0.417969 C 17.796875 0.417969 22.207031 -3.792969 22.207031 -9.765625 C 22.207031 -15.734375 17.796875 -19.945312 11.578125 -19.945312 C 5.355469 -19.945312 0.949219 -15.734375 0.949219 -9.765625 C 0.949219 -3.792969 5.355469 0.417969 11.578125 0.417969 Z M 6.667969 -9.765625 C 6.667969 -12.691406 8.703125 -14.730469 11.578125 -14.730469 C 14.476562 -14.730469 16.488281 -12.691406 16.488281 -9.765625 C 16.488281 -6.835938 14.476562 -4.796875 11.578125 -4.796875 C 8.703125 -4.796875 6.667969 -6.835938 6.667969 -9.765625 Z M 6.667969 -9.765625 "/></g></g></g><g fill="#000000" fill-opacity="1"><g transform="translate(207.602964, 45.708577)"><g><path d="M 2.0625 0 L 7.699219 0 L 7.699219 -5.550781 L 9.820312 -5.550781 L 12.609375 0 L 18.996094 0 L 15.398438 -6.582031 C 17.464844 -7.726562 18.636719 -9.792969 18.636719 -12.527344 C 18.636719 -16.851562 15.707031 -19.527344 10.964844 -19.527344 L 2.0625 -19.527344 Z M 7.589844 -10.042969 L 7.589844 -14.925781 L 10.210938 -14.925781 C 11.996094 -14.925781 12.972656 -14.058594 12.972656 -12.496094 C 12.972656 -10.9375 11.996094 -10.042969 10.210938 -10.042969 Z M 7.589844 -10.042969 "/></g></g></g><g fill="#000000" fill-opacity="1"><g transform="translate(227.687545, 45.708577)"><g><path d="M 2.0625 0 L 15.761719 0 L 15.761719 -4.601562 L 7.644531 -4.601562 L 7.644531 -7.617188 L 14.703125 -7.617188 L 14.703125 -12.136719 L 7.644531 -12.136719 L 7.644531 -14.980469 L 15.453125 -14.980469 L 15.453125 -19.527344 L 2.0625 -19.527344 Z M 2.0625 0 "/></g></g></g></svg>